<mxfile host="app.diagrams.net" modified="2024-08-06T07:08:26.343Z" agent="Mozilla/5.0 (Windows NT 10.0; Win64; x64) AppleWebKit/537.36 (KHTML, like Gecko) Chrome/127.0.0.0 Safari/537.36 Edg/127.0.0.0" etag="kvihzsNbSjcplmixDZBP" version="24.4.4" type="github">
  <diagram name="Page-1" id="KoakllbgLpJpK2NnKzau">
    <mxGraphModel dx="1386" dy="783" grid="1" gridSize="10" guides="1" tooltips="1" connect="1" arrows="1" fold="1" page="1" pageScale="1" pageWidth="850" pageHeight="1100" math="0" shadow="0">
      <root>
        <mxCell id="0" />
        <mxCell id="1" parent="0" />
        <mxCell id="FywWi2hzMEev_iFAibqH-1" value="" style="rounded=0;whiteSpace=wrap;html=1;" parent="1" vertex="1">
          <mxGeometry x="220" y="50" width="550" height="720" as="geometry" />
        </mxCell>
        <mxCell id="FywWi2hzMEev_iFAibqH-2" value="" style="rounded=0;whiteSpace=wrap;html=1;" parent="1" vertex="1">
          <mxGeometry x="290" y="90" width="420" height="30" as="geometry" />
        </mxCell>
        <mxCell id="FywWi2hzMEev_iFAibqH-3" value="" style="rounded=0;whiteSpace=wrap;html=1;" parent="1" vertex="1">
          <mxGeometry x="290" y="150" width="430" height="280" as="geometry" />
        </mxCell>
        <mxCell id="FywWi2hzMEev_iFAibqH-4" value="" style="rounded=0;whiteSpace=wrap;html=1;" parent="1" vertex="1">
          <mxGeometry x="280" y="460" width="440" height="240" as="geometry" />
        </mxCell>
      </root>
    </mxGraphModel>
  </diagram>
</mxfile>
